<svg width="128" height="128" viewBox="0 0 128 128" xmlns="http://www.w3.org/2000/svg">
  <defs>
    <linearGradient id="stone" x1="0" y1="0" x2="1" y2="1">
      <stop offset="0" stop-color="#f8fafc"/>
      <stop offset="1" stop-color="#cbd5e1"/>
    </linearGradient>
    <linearGradient id="flag" x1="0" y1="0" x2="1" y2="1">
      <stop offset="0" stop-color="#ef4444"/>
      <stop offset="1" stop-color="#991b1b"/>
    </linearGradient>
  </defs>
  <ellipse cx="64" cy="111" rx="43" ry="10" fill="#0f172a" opacity=".22"/>
  <rect x="40" y="37" width="48" height="70" rx="8" fill="url(#stone)" stroke="#475569" stroke-width="5"/>
  <path d="M48 52h32M48 67h32M48 82h32" stroke="#64748b" stroke-width="5" stroke-linecap="round"/>
  <path d="M64 16v27" stroke="#78350f" stroke-width="7" stroke-linecap="round"/>
  <path d="M67 17h42l-7 17 7 17H67z" fill="url(#flag)" stroke="#7f1d1d" stroke-width="4" stroke-linejoin="round"/>
  <path d="M88 24l3 7 8 1-6 5 2 8-7-4-7 4 2-8-6-5 8-1z" fill="#facc15"/>
  <path d="M52 96h24" stroke="#0f766e" stroke-width="6" stroke-linecap="round"/>
</svg>
